<?xml version="1.0" encoding="utf-8"?><!-- Uploaded to: SVG Repo, www.svgrepo.com, Generator: SVG Repo Mixer Tools -->
<svg fill="#000000" width="800px" height="800px" viewBox="0 -4.99 30 30" id="_25_-_Charging" data-name="25 - Charging" xmlns="http://www.w3.org/2000/svg">
  <path id="Path_275" data-name="Path 275" d="M31,15.713a2,2,0,0,0-2-2H27.747a1,1,0,0,0-1,1v2.574a1,1,0,0,0,1,1H29a2,2,0,0,0,2-2v-.574Zm-2,0v.574h-.253v-.574Z" transform="translate(-1 -5.989)" fill-rule="evenodd"/>
  <path id="Path_276" data-name="Path 276" d="M12.17,22.341a1,1,0,0,0,.836.452H25.172a3.575,3.575,0,0,0,3.575-3.575V12.782a3.575,3.575,0,0,0-3.575-3.575H18.414a1,1,0,0,0-.805.407,1,1,0,0,0-.8-.407H4.575A3.575,3.575,0,0,0,1,12.782v6.436a3.575,3.575,0,0,0,3.575,3.575h6.758A1,1,0,0,0,12.17,22.341Zm2.22-11.134L9.017,16.58a1,1,0,0,0,.707,1.707h2.244l-1.253,2.506H4.575A1.574,1.574,0,0,1,3,19.218V12.782a1.574,1.574,0,0,1,1.575-1.575H14.39Zm4.642,0h6.14a1.574,1.574,0,0,1,1.575,1.575v6.436a1.574,1.574,0,0,1-1.575,1.575H15.453l1.426-1.4,3.862-3.985a1,1,0,0,0-.718-1.7H17.779l1.253-2.506Zm-2.659.846-4.235,4.234h1.448a1,1,0,0,1,.895,1.448l-1.189,2.376,2.16-2.118,2.21-2.28h-1.5a1,1,0,0,1-.894-1.448l1.106-2.212Z" transform="translate(-1 -5.989)" fill-rule="evenodd"/>
  <path id="Path_277" data-name="Path 277" d="M20.917,7.436a1,1,0,0,0-1.6-1.155l-10.3,10.3a1,1,0,0,0,.707,1.707h2.244L8.83,24.564a1,1,0,0,0,1.594,1.161l6.437-6.313,3.88-4a1,1,0,0,0-.718-1.7H17.779l3.138-6.277Zm-4.544,4.617-1.106,2.212a1,1,0,0,0,.894,1.448h1.5l-2.21,2.28-2.16,2.118,1.189-2.376a1,1,0,0,0-.895-1.448H12.138l4.235-4.234Z" transform="translate(-1 -5.989)" fill-rule="evenodd"/>
</svg>