<svg width="50" height="50" viewBox="0 0 50 50" fill="none" xmlns="http://www.w3.org/2000/svg">
<g clip-path="url(#clip0_502_546)">
<path d="M42.9801 29.5195C40.4976 29.5195 38.485 27.507 38.485 25.0244C38.485 27.5069 36.4725 29.5195 33.9899 29.5195C31.5072 29.5195 29.4948 27.507 29.4948 25.0244C29.4948 27.5069 27.4822 29.5195 24.9997 29.5195C22.5172 29.5195 20.5046 27.507 20.5046 25.0244C20.5046 27.5069 18.492 29.5195 16.0095 29.5195C13.5269 29.5195 11.5143 27.507 11.5143 25.0244C11.5143 27.5069 9.50175 29.5195 7.01923 29.5195C6.44765 29.5195 5.90146 29.4116 5.39844 29.2171V48.5833H44.6008V29.2172C44.098 29.4117 43.5517 29.5195 42.9801 29.5195Z" fill="#AFE1ED"/>
<path d="M25.0001 13.4216C20.6287 13.4216 17.085 9.87782 17.085 5.50644V1.41553H32.9153V5.50654C32.9153 9.87801 29.3716 13.4216 25.0001 13.4216Z" fill="#F1414F"/>
<path d="M38.6551 36.7543C38.5632 36.7543 38.4696 36.7458 38.3775 36.7275C38.2884 36.709 38.1991 36.6808 38.1128 36.6454C38.0278 36.61 37.9457 36.5675 37.8692 36.5151C37.7914 36.4641 37.7191 36.4047 37.654 36.3395C37.5889 36.2744 37.5294 36.2022 37.4771 36.1242C37.4261 36.0477 37.3822 35.9658 37.3468 35.8806C37.3114 35.7944 37.2845 35.705 37.2661 35.6159C37.2477 35.524 37.2393 35.4304 37.2393 35.3384C37.2393 35.2465 37.2479 35.1529 37.2661 35.0623C37.2846 34.9717 37.3114 34.8825 37.3468 34.7976C37.3821 34.7113 37.4261 34.6292 37.4771 34.5527C37.5294 34.4749 37.5889 34.4026 37.654 34.3375C37.7191 34.2723 37.7913 34.2128 37.8692 34.1619C37.9457 34.1109 38.0278 34.0671 38.1128 34.0316C38.1991 33.9963 38.2884 33.9679 38.3775 33.951C38.5617 33.9141 38.7485 33.9141 38.9312 33.951C39.0219 33.9679 39.1111 33.9963 39.1959 34.0316C39.2822 34.067 39.3644 34.1109 39.4408 34.1619C39.5186 34.2128 39.5909 34.2723 39.6561 34.3375C39.7212 34.4026 39.7807 34.4748 39.8316 34.5527C39.8825 34.6292 39.9265 34.7113 39.9619 34.7976C39.9973 34.8826 40.0241 34.9717 40.0426 35.0623C40.061 35.153 40.0708 35.2465 40.0708 35.3384C40.0708 35.4303 40.061 35.524 40.0426 35.6159C40.024 35.705 39.9973 35.7944 39.9619 35.8806C39.9266 35.9657 39.8825 36.0477 39.8316 36.1242C39.7807 36.2022 39.7212 36.2744 39.6561 36.3395C39.5909 36.4047 39.5187 36.4641 39.4408 36.5151C39.3644 36.5674 39.2822 36.6099 39.1959 36.6454C39.1109 36.6807 39.0219 36.709 38.9312 36.7275C38.8407 36.7458 38.7472 36.7543 38.6551 36.7543Z" fill="black"/>
<path d="M7.01952 29.5198C4.53701 29.5198 2.52441 27.5073 2.52441 25.0247V16.9867C2.52441 15.0834 4.06738 13.5405 5.9706 13.5405H11.5145V25.0247C11.5144 27.5072 9.50204 29.5198 7.01952 29.5198Z" fill="#FFB085"/>
<path d="M16.0098 29.5198C13.5272 29.5198 11.5146 27.5073 11.5146 25.0247V13.5405H20.5048V25.0247C20.5049 27.5072 18.4923 29.5198 16.0098 29.5198Z" fill="#C97767"/>
<path d="M25 29.5198C22.5175 29.5198 20.5049 27.5073 20.5049 25.0247V13.5405H29.495V25.0247C29.495 27.5072 27.4826 29.5198 25 29.5198Z" fill="#FFB085"/>
<path d="M47.4756 25.0247C47.4756 27.5072 45.4631 29.5198 42.9805 29.5198C40.4979 29.5198 38.4854 27.5073 38.4854 25.0247V13.5405H44.0293C45.9326 13.5405 47.4755 15.0835 47.4755 16.9867V25.0247H47.4756Z" fill="#FFB085"/>
<path d="M33.9902 29.5198C31.5077 29.5198 29.4951 27.5073 29.4951 25.0247V13.5405H38.4852V25.0247C38.4853 27.5072 36.4727 29.5198 33.9902 29.5198Z" fill="#C97767"/>
<path d="M21.4105 35.3384H11.5996V48.583H21.4105V35.3384Z" fill="#C97767"/>
<path d="M44.0291 12.1247H31.5704C33.1014 10.6046 34.1074 8.55838 34.296 6.28339H35.9732C36.755 6.28339 37.3891 5.64931 37.3891 4.86747C37.3891 4.08564 36.755 3.45156 35.9732 3.45156H34.3308V1.41543C34.3309 0.633593 33.6968 -0.000488281 32.915 -0.000488281H17.0847C16.3027 -0.000488281 15.6688 0.633593 15.6688 1.41543V5.50643C15.6688 8.0911 16.7257 10.4332 18.4293 12.1246H5.9706C3.28955 12.1246 1.1084 14.3058 1.1084 16.9869V25.0249C1.1084 27.1746 2.2622 29.0592 3.98271 30.0939V48.5836C3.98271 49.3654 4.61659 49.9995 5.39862 49.9995H44.601C45.3828 49.9995 46.0169 49.3654 46.0169 48.5836V30.0938C47.7374 29.0591 48.8912 27.1745 48.8912 25.025V16.987C48.8912 14.3059 46.7102 12.1247 44.0291 12.1247ZM37.0693 25.0246C37.0693 26.5632 35.9348 27.8419 34.4583 28.0682C34.4074 28.076 34.3561 28.0827 34.3044 28.0879C34.2011 28.0984 34.0961 28.1038 33.9901 28.1038C33.884 28.1038 33.7791 28.0984 33.6757 28.0879C33.6241 28.0827 33.5728 28.0762 33.5218 28.0682C32.0454 27.8419 30.911 26.5632 30.911 25.0246V14.9565H37.0693V25.0246ZM24.9999 28.1039C24.8937 28.1039 24.7889 28.0985 24.6855 28.088C24.6338 28.0828 24.5826 28.0763 24.5316 28.0683C23.0552 27.842 21.9208 26.5633 21.9208 25.0247V14.9565H28.0791V25.0246C28.0791 26.5632 26.9447 27.8419 25.4682 28.0682C25.4172 28.076 25.366 28.0827 25.3143 28.0879C25.2109 28.0984 25.1059 28.1039 24.9999 28.1039ZM16.0096 28.1039C15.9035 28.1039 15.7987 28.0985 15.6953 28.088C15.6436 28.0828 15.5924 28.0763 15.5414 28.0683C14.065 27.842 12.9305 26.5633 12.9305 25.0247C12.9305 25.0243 12.9305 25.0238 12.9305 25.0238V14.9565H19.0889V25.0246C19.0889 26.5632 17.9545 27.8419 16.4781 28.0682C16.4271 28.076 16.3758 28.0827 16.3242 28.0879C16.2208 28.0984 16.1158 28.1039 16.0096 28.1039ZM18.5007 2.83134H31.4992V5.50643C31.4992 9.09012 28.5836 12.0055 25 12.0055C21.4163 12.0055 18.5007 9.09002 18.5007 5.50643L18.5007 2.83134ZM3.94023 16.987C3.94023 15.8674 4.85107 14.9565 5.9705 14.9565H10.0985V25.0248C10.0985 25.5022 9.98934 25.9546 9.79451 26.3584C9.36151 27.2557 8.50585 27.9123 7.48768 28.0683C7.43671 28.0761 7.38544 28.0828 7.33378 28.088C7.23046 28.0985 7.12548 28.1039 7.01942 28.1039C6.93075 28.1039 6.84257 28.0992 6.75477 28.0918C6.74501 28.091 6.73524 28.0906 6.72548 28.0896C6.6412 28.0815 6.5577 28.0697 6.4747 28.0547C6.46327 28.0526 6.45175 28.0507 6.44032 28.0487C6.35761 28.0329 6.27567 28.0135 6.19442 27.9909C6.18427 27.988 6.17421 27.9852 6.16415 27.9823C6.0829 27.9587 6.00233 27.9319 5.92274 27.9016C4.76493 27.4587 3.94033 26.3368 3.94033 25.0251L3.94023 16.987ZM13.0149 47.1676V36.7545H19.8404H19.9936V47.1675H13.0149V47.1676ZM43.1851 30.9323V47.1676H22.8254V36.7545H34.4071C35.1889 36.7545 35.823 36.1204 35.823 35.3386C35.823 34.5568 35.1889 33.9227 34.4071 33.9227H21.4095H19.8404H11.599C10.817 33.9227 10.1831 34.5568 10.1831 35.3386V47.1676H6.81464V30.9323C6.8827 30.9347 6.95096 30.9357 7.01942 30.9357C7.12684 30.9357 7.23348 30.9325 7.33954 30.9268C7.37469 30.9249 7.40936 30.9212 7.44413 30.9189C7.51483 30.9138 7.58544 30.9087 7.65536 30.9012C7.69637 30.8968 7.7369 30.8909 7.77772 30.8857C7.841 30.8776 7.90419 30.8693 7.96688 30.859C8.00965 30.8521 8.05184 30.844 8.09432 30.8363C8.15438 30.825 8.21415 30.8136 8.27362 30.8009C8.31639 30.7915 8.35887 30.7815 8.40135 30.7713C8.45956 30.7573 8.51747 30.7426 8.57499 30.7269C8.61717 30.7155 8.65907 30.7036 8.70086 30.6911C8.75819 30.6741 8.81512 30.6559 8.87167 30.6372C8.91219 30.6238 8.95262 30.6105 8.99286 30.596C9.05018 30.5756 9.10682 30.5539 9.16346 30.5319C9.20164 30.517 9.23993 30.5024 9.27772 30.4867C9.33661 30.4621 9.39471 30.4361 9.45272 30.4098C9.4868 30.3944 9.52137 30.3795 9.55506 30.3633C9.62108 30.3319 9.68592 30.2985 9.75057 30.2645C9.77508 30.2516 9.80008 30.2397 9.8245 30.2265C9.91317 30.1785 10.0005 30.1286 10.0863 30.0761C10.1006 30.0673 10.1143 30.0579 10.1287 30.0491C10.1996 30.005 10.2699 29.96 10.3387 29.9131C10.3677 29.8933 10.3957 29.8723 10.4243 29.8521C10.4774 29.8146 10.5305 29.7769 10.5822 29.7376C10.614 29.7134 10.6452 29.6882 10.6766 29.6634C10.7236 29.6263 10.7704 29.5891 10.8163 29.5505C10.8487 29.5232 10.8805 29.4952 10.9123 29.4672C10.9555 29.4292 10.9985 29.3911 11.0406 29.3518C11.0724 29.3222 11.1039 29.292 11.135 29.2618C11.1756 29.2224 11.2155 29.1825 11.2549 29.1419C11.2856 29.1104 11.3159 29.0787 11.3459 29.0463C11.3843 29.0051 11.4218 28.9632 11.4589 28.9208C11.4772 28.9 11.4967 28.88 11.5146 28.8588C11.5316 28.8787 11.5498 28.8972 11.5669 28.9168C11.6059 28.9613 11.6455 29.0055 11.6856 29.0488C11.7139 29.079 11.7427 29.1091 11.7716 29.1388C11.8128 29.1812 11.8546 29.2229 11.8969 29.264C11.9264 29.2927 11.9563 29.3213 11.9865 29.3496C12.0304 29.3905 12.075 29.4302 12.1202 29.4698C12.1504 29.4962 12.1805 29.5227 12.2112 29.5487C12.2591 29.5889 12.3078 29.6279 12.3569 29.6664C12.3864 29.6898 12.4155 29.7134 12.4454 29.7361C12.4996 29.7773 12.5553 29.8167 12.6109 29.856C12.6371 29.8744 12.6628 29.8937 12.6892 29.9118C12.7629 29.9619 12.8378 30.0102 12.9137 30.0571C12.9231 30.0628 12.9322 30.0693 12.9417 30.075C13.0282 30.1279 13.1161 30.1783 13.2054 30.2265C13.2269 30.2382 13.2493 30.2488 13.271 30.2601C13.3383 30.2954 13.4059 30.3303 13.4747 30.363C13.5071 30.3785 13.5401 30.3926 13.5728 30.4075C13.6322 30.4343 13.6916 30.4612 13.7521 30.4862C13.7889 30.5015 13.8263 30.5157 13.8635 30.5302C13.921 30.5528 13.9787 30.5748 14.0371 30.5954C14.0764 30.6095 14.1163 30.6226 14.156 30.6358C14.2133 30.6547 14.2709 30.673 14.3288 30.6903C14.37 30.7025 14.4115 30.7142 14.4531 30.7256C14.5111 30.7414 14.5695 30.7564 14.6281 30.7704C14.6702 30.7804 14.7124 30.7905 14.7547 30.7997C14.8144 30.8126 14.8746 30.8242 14.9349 30.8353C14.9771 30.8431 15.019 30.8511 15.0615 30.8579C15.1244 30.8681 15.1878 30.8765 15.2512 30.8846C15.2919 30.8899 15.3322 30.8958 15.373 30.9001C15.4431 30.9077 15.5139 30.9128 15.5847 30.9178C15.6196 30.9204 15.6541 30.9239 15.6891 30.9257C15.7952 30.9315 15.9018 30.9346 16.0092 30.9346C16.1167 30.9346 16.2233 30.9314 16.3294 30.9257C16.3643 30.9239 16.3989 30.9202 16.4339 30.9178C16.5047 30.9127 16.5753 30.9077 16.6454 30.9001C16.6863 30.8957 16.7266 30.8898 16.7673 30.8846C16.8307 30.8764 16.8941 30.868 16.9568 30.8579C16.9993 30.8511 17.0415 30.8431 17.0837 30.8352C17.1438 30.8242 17.2039 30.8125 17.2634 30.7997C17.306 30.7905 17.3482 30.7804 17.3905 30.7702C17.449 30.756 17.5072 30.7413 17.5651 30.7255C17.6069 30.7141 17.6485 30.7023 17.69 30.69C17.7478 30.6727 17.8051 30.6546 17.8622 30.6358C17.9022 30.6225 17.9424 30.6091 17.982 30.5952C18.04 30.5745 18.0972 30.5527 18.1545 30.5303C18.192 30.5156 18.2298 30.5013 18.2671 30.4859C18.3268 30.4611 18.3858 30.4346 18.4446 30.4079C18.4779 30.3928 18.5116 30.3784 18.5444 30.3626C18.612 30.3303 18.6784 30.2962 18.7445 30.2616C18.7674 30.2496 18.791 30.2383 18.8138 30.226C18.9029 30.1779 18.9907 30.1276 19.0767 30.075C19.0882 30.0681 19.0991 30.0605 19.1104 30.0534C19.1843 30.0077 19.2574 29.9608 19.3291 29.9118C19.3567 29.8929 19.3835 29.873 19.4106 29.8538C19.4651 29.8153 19.5195 29.7766 19.5727 29.7363C19.6036 29.7129 19.6335 29.6887 19.6637 29.6648C19.7119 29.6267 19.7598 29.5885 19.8069 29.5491C19.8383 29.5226 19.8691 29.4955 19.9001 29.4684C19.9444 29.4296 19.9882 29.3904 20.0315 29.3503C20.0626 29.3214 20.0929 29.2923 20.1233 29.2628C20.1648 29.2225 20.2057 29.1817 20.2461 29.1401C20.2757 29.1095 20.3054 29.0787 20.3344 29.0475C20.3738 29.0051 20.4123 28.9622 20.4504 28.9187C20.468 28.8985 20.4869 28.8791 20.5043 28.8588C20.5218 28.8793 20.5405 28.8986 20.5582 28.9187C20.5963 28.9622 20.6347 29.0052 20.6741 29.0475C20.7033 29.0788 20.7327 29.1095 20.7625 29.1401C20.8028 29.1816 20.8437 29.2225 20.8852 29.2628C20.9155 29.2923 20.9461 29.3216 20.977 29.3503C21.0202 29.3906 21.0641 29.4296 21.1085 29.4684C21.1393 29.4955 21.1702 29.5226 21.2016 29.5491C21.2486 29.5886 21.2964 29.6268 21.3448 29.6648C21.3751 29.6887 21.4051 29.713 21.4358 29.7363C21.4889 29.7766 21.5434 29.8153 21.5979 29.8538C21.6253 29.873 21.6518 29.893 21.6795 29.9118C21.7511 29.9606 21.8242 30.0077 21.8981 30.0534C21.9094 30.0605 21.9204 30.0681 21.9318 30.075C22.018 30.1276 22.1058 30.1779 22.1947 30.226C22.2174 30.2383 22.241 30.2496 22.264 30.2616C22.3301 30.2962 22.3965 30.3305 22.4641 30.3626C22.4969 30.3784 22.5306 30.3926 22.5639 30.4079C22.6227 30.4346 22.6816 30.4611 22.7415 30.4859C22.7787 30.5013 22.8164 30.5156 22.8541 30.5303C22.9113 30.5527 22.9685 30.5746 23.0265 30.5952C23.0662 30.6093 23.1062 30.6225 23.1463 30.6358C23.2034 30.6546 23.2606 30.6729 23.3185 30.69C23.3598 30.7023 23.4015 30.714 23.4434 30.7255C23.5012 30.7413 23.5593 30.7561 23.618 30.7702C23.6602 30.7802 23.7026 30.7903 23.7451 30.7997C23.8046 30.8125 23.8647 30.8242 23.9249 30.8352C23.967 30.843 24.0092 30.851 24.0517 30.8579C24.1146 30.8681 24.1779 30.8765 24.2413 30.8846C24.2819 30.8899 24.3222 30.8958 24.3631 30.9001C24.4333 30.9077 24.5039 30.9128 24.5747 30.9178C24.6095 30.9204 24.644 30.9239 24.6792 30.9257C24.7852 30.9315 24.8918 30.9346 24.9993 30.9346C25.1067 30.9346 25.2133 30.9314 25.3194 30.9257C25.3545 30.9239 25.389 30.9202 25.4241 30.9178C25.4949 30.9127 25.5655 30.9077 25.6355 30.9001C25.6764 30.8957 25.7169 30.8898 25.7576 30.8846C25.821 30.8764 25.8843 30.868 25.947 30.8579C25.9896 30.8511 26.0318 30.8431 26.0742 30.8352C26.1343 30.8242 26.1943 30.8125 26.2539 30.7997C26.2964 30.7905 26.3388 30.7804 26.3811 30.7702C26.4394 30.7561 26.4975 30.7412 26.5552 30.7257C26.5971 30.7143 26.639 30.7024 26.6805 30.6901C26.7381 30.673 26.7952 30.6548 26.852 30.636C26.8922 30.6227 26.9325 30.6093 26.9723 30.5951C27.0301 30.5746 27.0872 30.5527 27.1442 30.5303C27.182 30.5156 27.2198 30.5011 27.2572 30.4857C27.3167 30.4611 27.3754 30.4346 27.434 30.4079C27.4676 30.3928 27.5014 30.3782 27.5345 30.3625C27.6018 30.3304 27.6679 30.2964 27.7337 30.2619C27.757 30.2496 27.7807 30.2383 27.8039 30.2259C27.8928 30.1778 27.9804 30.1275 28.0666 30.0751C28.0791 30.0675 28.0909 30.0593 28.1033 30.0516C28.1762 30.0064 28.2483 29.9601 28.3191 29.9119C28.347 29.8929 28.3739 29.8728 28.4013 29.8533C28.4555 29.8149 28.5098 29.7765 28.5625 29.7363C28.5936 29.7126 28.6239 29.6881 28.6544 29.6641C28.7023 29.6263 28.75 29.5883 28.7966 29.549C28.8284 29.5223 28.8593 29.4951 28.8905 29.4677C28.9345 29.4292 28.9783 29.3901 29.0211 29.3502C29.0523 29.3212 29.0831 29.2917 29.1134 29.2621C29.1547 29.2219 29.1957 29.1813 29.2359 29.1398C29.2658 29.109 29.2954 29.0782 29.3244 29.0469C29.3637 29.0047 29.4021 28.9617 29.4402 28.9182C29.4581 28.898 29.4767 28.8787 29.4943 28.8581C29.5117 28.8786 29.5304 28.8978 29.5481 28.9179C29.5863 28.9616 29.6249 29.0045 29.6643 29.047C29.6933 29.0782 29.7228 29.1089 29.7524 29.1393C29.7929 29.1809 29.8338 29.2218 29.8755 29.2623C29.9058 29.2916 29.9362 29.3208 29.967 29.3496C30.0102 29.3898 30.0542 29.4291 30.0987 29.4681C30.1294 29.495 30.1601 29.5222 30.1914 29.5486C30.2386 29.5881 30.2866 29.6264 30.335 29.6645C30.3652 29.6883 30.3951 29.7125 30.4256 29.7357C30.479 29.7762 30.5338 29.8151 30.5886 29.8538C30.6157 29.8729 30.642 29.8925 30.6693 29.9113C30.7416 29.9606 30.8154 30.008 30.8902 30.0541C30.9008 30.0607 30.911 30.0679 30.9216 30.0744C31.008 30.127 31.0957 30.1775 31.185 30.2255C31.2074 30.2377 31.2304 30.2486 31.253 30.2605C31.3195 30.2954 31.3864 30.3298 31.4544 30.3622C31.4872 30.3778 31.5205 30.3921 31.5536 30.4072C31.6126 30.4339 31.6716 30.4606 31.7317 30.4855C31.7688 30.5008 31.8063 30.5151 31.8438 30.5298C31.9011 30.5522 31.9584 30.5742 32.0166 30.5949C32.0562 30.6089 32.096 30.6222 32.136 30.6354C32.1932 30.6542 32.2505 30.6725 32.3084 30.6898C32.3497 30.7021 32.3913 30.7138 32.433 30.7251C32.491 30.741 32.5493 30.7557 32.6078 30.7699C32.6499 30.78 32.692 30.79 32.7346 30.7994C32.7942 30.8122 32.8544 30.8239 32.9147 30.8349C32.9569 30.8427 32.999 30.8507 33.0414 30.8576C33.1043 30.8677 33.1677 30.8761 33.2312 30.8842C33.2718 30.8895 33.3121 30.8954 33.353 30.8997C33.4231 30.9073 33.4937 30.9124 33.5645 30.9174C33.5994 30.92 33.6338 30.9235 33.669 30.9253C33.775 30.9311 33.8817 30.9342 33.9891 30.9342C34.0965 30.9342 34.2032 30.931 34.3092 30.9253C34.3444 30.9235 34.3788 30.9198 34.4138 30.9174C34.4846 30.9123 34.5552 30.9073 34.6252 30.8997C34.6661 30.8954 34.7067 30.8894 34.7473 30.8842C34.8108 30.876 34.8741 30.8676 34.9368 30.8576C34.9793 30.8507 35.0215 30.8427 35.0639 30.8348C35.1241 30.8238 35.184 30.8121 35.2436 30.7993C35.2862 30.7901 35.3285 30.78 35.3708 30.7698C35.4291 30.7557 35.4872 30.7409 35.545 30.7253C35.5868 30.7139 35.6287 30.702 35.6702 30.6897C35.7279 30.6726 35.7849 30.6544 35.8417 30.6356C35.882 30.6223 35.9222 30.6089 35.962 30.5947C36.0199 30.5742 36.0769 30.5523 36.1339 30.5299C36.1717 30.5152 36.2095 30.5007 36.2469 30.4853C36.3065 30.4607 36.3652 30.4342 36.4238 30.4076C36.4574 30.3924 36.4911 30.3779 36.5243 30.3622C36.5915 30.33 36.6576 30.296 36.7235 30.2615C36.7467 30.2493 36.7704 30.2379 36.7936 30.2255C36.8825 30.1774 36.9701 30.1271 37.0563 30.0747C37.0688 30.0671 37.0806 30.0589 37.093 30.0512C37.1659 30.006 37.238 29.9597 37.3088 29.9115C37.3368 29.8925 37.3636 29.8724 37.391 29.8529C37.4452 29.8145 37.4995 29.7761 37.5523 29.7359C37.5833 29.7122 37.6136 29.6877 37.6442 29.6637C37.692 29.6259 37.7398 29.5879 37.7864 29.5486C37.8181 29.5219 37.8491 29.4947 37.8802 29.4673C37.9242 29.4289 37.968 29.3897 38.0109 29.3498C38.042 29.3208 38.0728 29.2913 38.1032 29.2618C38.1445 29.2215 38.1854 29.1809 38.2256 29.1394C38.2555 29.1086 38.2851 29.0778 38.3141 29.0465C38.3534 29.0043 38.3918 28.9613 38.4299 28.9178C38.4478 28.8976 38.4664 28.8783 38.484 28.8578C38.5014 28.8782 38.5201 28.8974 38.5378 28.9175C38.576 28.9612 38.6147 29.0041 38.654 29.0466C38.683 29.0778 38.7125 29.1085 38.7421 29.1389C38.7826 29.1805 38.8236 29.2214 38.8653 29.262C38.8955 29.2913 38.9259 29.3204 38.9568 29.3492C38.9999 29.3894 39.044 29.4288 39.0884 29.4677C39.1192 29.4946 39.1498 29.5218 39.1812 29.5482C39.2283 29.5877 39.2763 29.626 39.3247 29.6641C39.3549 29.6879 39.3848 29.7122 39.4154 29.7353C39.4688 29.7758 39.5236 29.8147 39.5783 29.8534C39.6054 29.8725 39.6318 29.8921 39.659 29.9109C39.7314 29.9602 39.8051 30.0076 39.8799 30.0538C39.8906 30.0603 39.9007 30.0675 39.9114 30.074C39.9977 30.1266 40.0855 30.1771 40.1747 30.2252C40.1971 30.2374 40.2201 30.2483 40.2427 30.2602C40.3092 30.2952 40.3761 30.3295 40.4442 30.362C40.4769 30.3776 40.5103 30.3918 40.5433 30.4069C40.6024 30.4336 40.6614 30.4603 40.7214 30.4852C40.7585 30.5005 40.796 30.5148 40.8335 30.5295C40.8908 30.5519 40.9482 30.5739 41.0064 30.5946C41.0459 30.6086 41.0858 30.6219 41.1257 30.6351C41.1829 30.6539 41.2403 30.6722 41.2982 30.6895C41.3395 30.7018 41.381 30.7135 41.4228 30.7248C41.4807 30.7407 41.539 30.7554 41.5975 30.7696C41.6397 30.7797 41.6818 30.7897 41.7243 30.7991C41.7839 30.812 41.8442 30.8236 41.9044 30.8346C41.9466 30.8424 41.9887 30.8504 42.0312 30.8573C42.0941 30.8674 42.1574 30.8758 42.2209 30.8839C42.2615 30.8892 42.3019 30.8952 42.3427 30.8995C42.4128 30.907 42.4834 30.9121 42.5542 30.9171C42.5891 30.9197 42.6236 30.9232 42.6587 30.925C42.7648 30.9308 42.8714 30.9339 42.9788 30.9339C43.0486 30.9357 43.117 30.9345 43.1851 30.9323ZM46.0594 25.0248C46.0594 26.3358 45.2355 27.4573 44.0785 27.9006C43.9983 27.9314 43.9171 27.9584 43.8352 27.9822C43.8254 27.985 43.8156 27.9878 43.8059 27.9906C43.7244 28.0133 43.6422 28.0327 43.5594 28.0485C43.5481 28.0506 43.5366 28.0526 43.5251 28.0545C43.442 28.0694 43.3584 28.0813 43.2742 28.0894C43.2646 28.0904 43.2548 28.0908 43.245 28.0916C43.1572 28.0992 43.0691 28.1039 42.9803 28.1039C42.8741 28.1039 42.7694 28.0985 42.6659 28.088C42.6143 28.0828 42.563 28.0763 42.512 28.0683C41.0357 27.842 39.9012 26.5633 39.9012 25.0247V14.9565H44.0292C45.1486 14.9565 46.0595 15.8674 46.0595 16.987V25.0248H46.0594Z" fill="black"/>
</g>
<defs>
<clipPath id="clip0_502_546">
<rect width="50" height="50" fill="white" transform="translate(0 -0.000488281)"/>
</clipPath>
</defs>
</svg>
