<svg width="32" height="34" viewBox="0 0 32 34" fill="none" xmlns="http://www.w3.org/2000/svg">
<path fill-rule="evenodd" clip-rule="evenodd" d="M20.7544 4.37091C21.1983 4.51485 21.4995 4.92694 21.5017 5.39353C21.5106 5.59827 21.5113 5.76491 21.5113 5.76491C21.5113 5.76491 21.5042 11.4471 14.7761 16.6779C12.0392 18.8058 9.66541 22.2647 9.04543 25.4986C8.96394 25.931 8.6292 26.2718 8.19802 26.3605C7.76683 26.4492 7.32491 26.2685 7.07915 25.9026C5.16173 23.0612 2.98731 17.7511 6.61324 11.4631C9.88278 5.79339 15.9195 2.89402 20.7544 4.37091Z" fill="black"/>
<path fill-rule="evenodd" clip-rule="evenodd" d="M11.2783 29.3982C10.8145 29.2498 10.4987 28.8197 10.4968 28.3327C10.4875 28.1431 10.4865 27.9936 10.4865 27.9936C10.4865 27.9936 10.4936 22.3114 17.2216 17.0807C19.934 14.972 22.2895 11.5558 22.9351 8.34755C23.0245 7.9004 23.3747 7.55059 23.8225 7.46316C24.2705 7.37525 24.727 7.56627 24.9784 7.94695C26.8816 10.8096 28.9721 16.0738 25.3845 22.2955C22.1225 27.9509 16.1077 30.8501 11.2783 29.3982Z" fill="black"/>
</svg>
