<svg width="14" height="15" viewBox="0 0 14 15" fill="none" xmlns="http://www.w3.org/2000/svg">
<path fill-rule="evenodd" clip-rule="evenodd" d="M3 14.0894H0V5.08936H3V14.0894Z" fill="#0A142F"/>
<path fill-rule="evenodd" clip-rule="evenodd" d="M1.49108 3.08936H1.47404C0.578773 3.08936 0 2.42238 0 1.58884C0 0.737662 0.5964 0.0893555 1.50865 0.0893555C2.42091 0.0893555 2.98269 0.737662 3 1.58884C3 2.42238 2.42091 3.08936 1.49108 3.08936Z" fill="#0A142F"/>
<path fill-rule="evenodd" clip-rule="evenodd" d="M13.9999 14.0891H11.0519V9.38471C11.0519 8.20306 10.6253 7.39674 9.55814 7.39674C8.74368 7.39674 8.25855 7.94032 8.04549 8.46534C7.96754 8.6535 7.94841 8.91566 7.94841 9.17846V14.0894H5C5 14.0894 5.03886 6.12119 5 5.29607H7.94841V6.54157C8.33968 5.94284 9.04046 5.08936 10.6057 5.08936C12.5456 5.08936 14 6.34641 14 9.04732L13.9999 14.0891Z" fill="#0A142F"/>
</svg>
