<svg width="30" height="31" viewBox="0 0 30 31" fill="none" xmlns="http://www.w3.org/2000/svg">
<path d="M10.7297 5.87039C12.6297 2.46201 13.5796 0.757812 15 0.757812C16.4203 0.757812 17.3703 2.462 19.2702 5.87037L19.7617 6.75217C20.3017 7.72072 20.5716 8.20501 20.9926 8.52454C21.4135 8.84407 21.9376 8.96267 22.9861 9.1999L23.9407 9.41587C27.6301 10.2507 29.475 10.6681 29.9139 12.0794C30.3528 13.4907 29.0952 14.9615 26.5798 17.9027L25.9291 18.6636C25.2144 19.4994 24.8569 19.9173 24.6961 20.4344C24.5355 20.9514 24.5895 21.509 24.6975 22.6242L24.7959 23.6394C25.1761 27.5638 25.3663 29.5259 24.2173 30.3982C23.0682 31.2704 21.3409 30.4751 17.8864 28.8847L16.9927 28.4731C16.0111 28.0211 15.5203 27.795 15 27.795C14.4796 27.795 13.9888 28.0211 13.0072 28.4731L12.1135 28.8847C8.65901 30.4751 6.93176 31.2704 5.78272 30.3982C4.63368 29.5259 4.82382 27.5638 5.2041 23.6394L5.30247 22.6242C5.41054 21.509 5.46457 20.9514 5.30379 20.4344C5.14302 19.9173 4.78564 19.4994 4.07088 18.6636L3.42015 17.9027C0.904877 14.9615 -0.352767 13.4907 0.0861328 12.0794C0.525032 10.6681 2.36979 10.2507 6.0593 9.41587L7.01383 9.1999C8.06227 8.96267 8.58649 8.84407 9.0074 8.52454C9.42832 8.20501 9.69829 7.72073 10.2382 6.75217L10.7297 5.87039Z" fill="black"/>
</svg>
