<svg width="28" height="28" viewBox="0 0 28 28" fill="none" xmlns="http://www.w3.org/2000/svg">
<path d="M20.298 17.3594C20.298 17.3594 21.7605 23.2915 22.183 24.9076C22.5811 26.4269 21.3623 26.3863 20.6148 25.8671C19.778 25.2813 13.993 21.1457 13.993 21.1457C13.993 21.1457 8.15918 25.3138 7.35481 25.8744C6.66419 26.3538 5.38043 26.4594 5.90043 24.9246C6.27418 23.6328 8.10231 17.3594 8.10231 17.3594C8.10231 17.3594 2.76418 13.4513 2.19543 13.0126C1.62669 12.5819 1.60231 11.3632 2.62606 11.2746C3.64168 11.1926 10.2067 10.6328 10.2067 10.6328C10.2067 10.6328 12.7498 3.5884 13.0911 2.65321C13.4242 1.54009 14.5292 1.51571 14.9761 2.63696C15.3417 3.54696 18.1936 10.6328 18.1936 10.6328C18.1936 10.6328 24.393 11.1844 25.3273 11.2657C26.3511 11.3307 26.4323 12.599 25.7661 13.1109C25.108 13.6301 20.298 17.3594 20.298 17.3594Z" fill="#FFC44D"/>
<path fill-rule="evenodd" clip-rule="evenodd" d="M14.9794 2.63668C15.345 3.5475 18.1952 10.6333 18.1952 10.6333C18.1952 10.6333 24.3963 11.185 25.3298 11.263C26.3528 11.328 26.4332 12.5963 25.7694 13.1123C25.1072 13.6258 20.2972 17.3584 20.2972 17.3584C20.2972 17.3584 21.7589 23.2872 22.1838 24.9024C22.5819 26.4243 21.3608 26.3836 20.6181 25.8644C19.7772 25.2786 13.9922 21.1414 13.9922 21.1414C13.9922 21.1414 8.16169 25.3103 7.35894 25.8709C6.66831 26.3511 5.37887 26.4559 5.89887 24.9252C6.27669 23.6333 8.10481 17.3584 8.10481 17.3584C8.10481 17.3584 2.76181 13.4486 2.19469 13.0123C1.62431 12.5768 1.60644 11.3613 2.62369 11.2744C3.64256 11.1883 10.2076 10.6333 10.2076 10.6333C10.2076 10.6333 12.7523 3.58568 13.0944 2.65375C13.4259 1.53981 14.5301 1.51462 14.9794 2.63668Z" stroke="black" stroke-width="2" stroke-linecap="round" stroke-linejoin="round"/>
</svg>
