<svg width="33" height="37" viewBox="0 0 33 37" fill="none" xmlns="http://www.w3.org/2000/svg">
<path d="M29.5149 14.7016C29.6007 14.2409 29.6436 13.7779 29.6436 13.3195C29.6436 10.0043 27.5411 7.10581 24.454 6.04777C23.3057 2.45479 19.9882 0 16.1616 0C12.3349 0 9.01629 2.45479 7.86908 6.04777C4.78088 7.10465 2.67946 10.0043 2.67946 13.3195C2.67946 13.7779 2.72239 14.2409 2.80709 14.7016C1.01396 16.3502 0 18.6434 0 21.0993C0 25.9061 3.91022 29.8164 8.71704 29.8164C9.67232 29.8164 10.605 29.6628 11.5015 29.3602C12.5437 30.0986 13.7474 30.5762 15.0052 30.7591V37H15.5834H16.7396H17.3177V30.7592C18.5756 30.5763 19.7793 30.0986 20.8215 29.3602C21.7169 29.6629 22.6507 29.8164 23.6059 29.8164C28.4127 29.8164 32.323 25.9062 32.323 21.0994C32.3231 18.6434 31.308 16.3501 29.5149 14.7016ZM23.6061 27.5039C22.7321 27.5039 21.8841 27.33 21.0824 26.9867L20.4252 26.7044L19.8787 27.1673C18.9889 27.9216 17.8902 28.3846 16.7396 28.502V25.4759L21.2596 20.3111L20.3891 19.5501L16.7397 23.7212V19.462L20.3846 15.2955L19.514 14.5344L16.7397 17.7051V11.1763H15.5834V17.7062L12.808 14.5344L11.9374 15.2954L15.5834 19.4621V23.7213L11.934 19.5502L11.0634 20.3112L15.5834 25.4759V28.502C14.4317 28.3846 13.3342 27.9216 12.4433 27.1673L11.8979 26.7044L11.2396 26.9867C10.4391 27.3299 9.58994 27.5038 8.71711 27.5038C5.18513 27.5038 2.31257 24.6312 2.31257 21.0992C2.31257 19.1108 3.22045 17.2669 4.80234 16.0407L5.42115 15.5597L5.20551 14.8077C5.06322 14.3131 4.99211 13.8118 4.99211 13.3194C4.99211 10.8375 6.67568 8.68987 9.08639 8.09707L9.77291 7.92768L9.93551 7.24C10.622 4.33818 13.1818 2.3125 16.1616 2.3125C19.1414 2.3125 21.7011 4.33818 22.3866 7.24015L22.5492 7.92783L23.2357 8.09722C25.6464 8.69001 27.3311 10.8377 27.3311 13.3196C27.3311 13.8119 27.2589 14.3132 27.1166 14.8078L26.9009 15.5598L27.5198 16.0408C29.1028 17.2671 30.0107 19.1109 30.0107 21.0994C30.0106 24.6313 27.1369 27.5039 23.6061 27.5039Z" fill="black"/>
</svg>
