<svg width="25" height="26" viewBox="0 0 25 26" fill="none" xmlns="http://www.w3.org/2000/svg">
<path d="M11.9791 23.1564C6.09367 23.1564 1.302 18.3647 1.302 12.4793C1.302 6.59391 6.09367 1.80225 11.9791 1.80225C12.4062 1.80225 12.7603 2.15641 12.7603 2.5835C12.7603 3.01058 12.4062 3.36475 11.9791 3.36475C6.94783 3.36475 2.8645 7.4585 2.8645 12.4793C2.8645 17.5002 6.94783 21.5939 11.9791 21.5939C17.0103 21.5939 21.0937 17.5002 21.0937 12.4793C21.0937 12.0522 21.4478 11.6981 21.8749 11.6981C22.302 11.6981 22.6562 12.0522 22.6562 12.4793C22.6562 18.3647 17.8645 23.1564 11.9791 23.1564Z" fill="white"/>
<path d="M22.9167 24.1979C22.7188 24.1979 22.5208 24.125 22.3646 23.9688L20.2812 21.8854C19.9792 21.5833 19.9792 21.0833 20.2812 20.7813C20.5833 20.4792 21.0833 20.4792 21.3854 20.7813L23.4688 22.8646C23.7708 23.1667 23.7708 23.6667 23.4688 23.9688C23.3125 24.125 23.1146 24.1979 22.9167 24.1979Z" fill="white"/>
<path d="M18.2292 10.4376C17.2709 10.4376 15.0417 9.27098 14.3542 7.12515C13.8854 5.6564 14.4271 3.72932 16.125 3.17723C16.8542 2.93765 17.6146 3.05223 18.2188 3.43765C18.8125 3.05223 19.5938 2.94807 20.3229 3.17723C22.0209 3.72932 22.5729 5.6564 22.0938 7.12515C21.4167 9.31265 19.0729 10.4376 18.2292 10.4376ZM15.8438 6.6564C16.3229 8.16682 17.9479 8.85432 18.2396 8.88557C18.5729 8.85432 20.1667 8.08348 20.6042 6.66682C20.8438 5.9064 20.6042 4.92723 19.8438 4.67723C19.5209 4.57307 19.0834 4.63557 18.875 4.93765C18.7292 5.1564 18.5 5.2814 18.2396 5.29182C18.0104 5.30223 17.7396 5.17723 17.5938 4.9689C17.3542 4.62515 16.9167 4.57307 16.6042 4.66682C15.8542 4.91682 15.6042 5.89598 15.8438 6.6564Z" fill="white"/>
</svg>
